<?xml version="1.0" encoding="utf-8"?>
<!-- Generator: Adobe Illustrator 16.0.0, SVG Export Plug-In . SVG Version: 6.00 Build 0)  -->
<!DOCTYPE svg PUBLIC "-//W3C//DTD SVG 1.1//EN" "http://www.w3.org/Graphics/SVG/1.1/DTD/svg11.dtd">
<svg version="1.1" id="Layer_1" xmlns="http://www.w3.org/2000/svg" xmlns:xlink="http://www.w3.org/1999/xlink" x="0px" y="0px"
	 width="128px" height="128px" viewBox="0 0 128 128" enable-background="new 0 0 128 128" xml:space="preserve">
<g>
	<g>
		<rect x="32.667" y="41.896" fill="#282D33" width="42.729" height="4"/>
	</g>
	<g>
		<polygon fill="#282D33" points="33.071,49.533 15.324,6.209 0,6.209 0,2.209 16.666,2.209 18.517,3.451 36.772,48.017 		"/>
	</g>
	<g>
		<polygon fill="#282D33" points="117.178,101.561 113.178,101.561 113.178,74.307 76.055,74.307 76.055,70.307 115.178,70.307 
			117.178,72.307 		"/>
	</g>
	<g>
		<path fill="#282D33" d="M41.577,125.791c-22.191,0-40.244-17.899-40.244-39.9c0-22,18.053-39.899,40.244-39.899
			c22.19,0,40.243,17.899,40.243,39.899C81.82,107.892,63.767,125.791,41.577,125.791z M41.577,49.991
			c-19.985,0-36.244,16.104-36.244,35.899c0,19.796,16.259,35.9,36.244,35.9c19.984,0,36.243-16.104,36.243-35.9
			C77.82,66.096,61.562,49.991,41.577,49.991z"/>
	</g>
	<g>
		<path fill="#282D33" d="M114.816,125.791c-7.27,0-13.185-5.869-13.185-13.084s5.915-13.084,13.185-13.084S128,105.492,128,112.707
			S122.086,125.791,114.816,125.791z M114.816,103.623c-5.064,0-9.185,4.075-9.185,9.084s4.12,9.084,9.185,9.084
			c5.063,0,9.184-4.075,9.184-9.084S119.88,103.623,114.816,103.623z"/>
	</g>
	<g>
		<path fill="#282D33" d="M41.577,103.887c-10.003,0-18.142-8.073-18.142-17.996s8.139-17.996,18.142-17.996
			s18.142,8.073,18.142,17.996S51.581,103.887,41.577,103.887z M41.577,71.895c-7.798,0-14.142,6.278-14.142,13.996
			s6.344,13.996,14.142,13.996s14.142-6.278,14.142-13.996S49.375,71.895,41.577,71.895z"/>
	</g>
</g>
</svg>
